<?xml version="1.0" encoding="UTF-8" standalone="no"?>
<!DOCTYPE svg PUBLIC "-//W3C//DTD SVG 1.1//EN"
 "http://www.w3.org/Graphics/SVG/1.1/DTD/svg11.dtd">
<!-- Generated by graphviz version 2.30.1 (20201013.1554)
 -->
<!-- Title: snakemake_dag Pages: 1 -->
<svg width="246pt" height="476pt"
 viewBox="0.00 0.00 245.82 476.00" xmlns="http://www.w3.org/2000/svg" xmlns:xlink="http://www.w3.org/1999/xlink">
<g id="graph0" class="graph" transform="scale(1 1) rotate(0) translate(4 472)">
<title>snakemake_dag</title>
<polygon fill="white" stroke="white" points="-4,5 -4,-472 242.817,-472 242.817,5 -4,5"/>
<!-- 0 -->
<g id="node1" class="node"><title>0</title>
<path fill="none" stroke="#5692d8" stroke-width="2" d="M111,-36C111,-36 81,-36 81,-36 75,-36 69,-30 69,-24 69,-24 69,-12 69,-12 69,-6 75,-0 81,-0 81,-0 111,-0 111,-0 117,-0 123,-6 123,-12 123,-12 123,-24 123,-24 123,-30 117,-36 111,-36"/>
<text text-anchor="middle" x="96" y="-15.5" font-family="sans" font-size="10.00">all</text>
</g>
<!-- 1 -->
<g id="node2" class="node"><title>1</title>
<path fill="none" stroke="#56c9d8" stroke-width="2" d="M86,-252C86,-252 12,-252 12,-252 6,-252 0,-246 0,-240 0,-240 0,-228 0,-228 0,-222 6,-216 12,-216 12,-216 86,-216 86,-216 92,-216 98,-222 98,-228 98,-228 98,-240 98,-240 98,-246 92,-252 86,-252"/>
<text text-anchor="middle" x="49" y="-231.5" font-family="sans" font-size="10.00">evaluate_beagle</text>
</g>
<!-- 1&#45;&gt;0 -->
<g id="edge1" class="edge"><title>1&#45;&gt;0</title>
<path fill="none" stroke="grey" stroke-width="2" d="M50.9944,-215.872C54.6641,-186.225 63.3806,-123.569 77,-72 79.2713,-63.3998 82.3287,-54.2169 85.3262,-45.9521"/>
<polygon fill="grey" stroke="grey" points="88.6639,-47.0196 88.8961,-36.4273 82.1091,-44.5628 88.6639,-47.0196"/>
</g>
<!-- 2 -->
<g id="node3" class="node"><title>2</title>
<path fill="none" stroke="#d85656" stroke-width="2" d="M133,-468C133,-468 101,-468 101,-468 95,-468 89,-462 89,-456 89,-456 89,-444 89,-444 89,-438 95,-432 101,-432 101,-432 133,-432 133,-432 139,-432 145,-438 145,-444 145,-444 145,-456 145,-456 145,-462 139,-468 133,-468"/>
<text text-anchor="middle" x="117" y="-447.5" font-family="sans" font-size="10.00">splitting</text>
</g>
<!-- 2&#45;&gt;1 -->
<g id="edge3" class="edge"><title>2&#45;&gt;1</title>
<path fill="none" stroke="grey" stroke-width="2" d="M99.1554,-431.944C89.4473,-422.052 77.6837,-409.01 69,-396 49.3537,-366.566 42.7432,-358.531 35,-324 30.3653,-303.331 34.5517,-279.625 39.5235,-261.878"/>
<polygon fill="grey" stroke="grey" points="42.91,-262.772 42.4809,-252.186 36.2148,-260.729 42.91,-262.772"/>
</g>
<!-- 3 -->
<g id="node4" class="node"><title>3</title>
<path fill="none" stroke="#56d873" stroke-width="2" d="M86,-324C86,-324 56,-324 56,-324 50,-324 44,-318 44,-312 44,-312 44,-300 44,-300 44,-294 50,-288 56,-288 56,-288 86,-288 86,-288 92,-288 98,-294 98,-300 98,-300 98,-312 98,-312 98,-318 92,-324 86,-324"/>
<text text-anchor="middle" x="71" y="-303.5" font-family="sans" font-size="10.00">beagle</text>
</g>
<!-- 2&#45;&gt;3 -->
<g id="edge5" class="edge"><title>2&#45;&gt;3</title>
<path fill="none" stroke="grey" stroke-width="2" d="M101.973,-431.576C94.3807,-421.775 85.7849,-408.936 81,-396 73.6846,-376.222 71.3136,-352.422 70.7013,-334.411"/>
<polygon fill="grey" stroke="grey" points="74.1987,-334.227 70.5193,-324.292 67.1998,-334.353 74.1987,-334.227"/>
</g>
<!-- 4 -->
<g id="node5" class="node"><title>4</title>
<path fill="none" stroke="#56d8a9" stroke-width="2" d="M132,-396C132,-396 102,-396 102,-396 96,-396 90,-390 90,-384 90,-384 90,-372 90,-372 90,-366 96,-360 102,-360 102,-360 132,-360 132,-360 138,-360 144,-366 144,-372 144,-372 144,-384 144,-384 144,-390 138,-396 132,-396"/>
<text text-anchor="middle" x="117" y="-375.5" font-family="sans" font-size="10.00">pooling</text>
</g>
<!-- 2&#45;&gt;4 -->
<g id="edge7" class="edge"><title>2&#45;&gt;4</title>
<path fill="none" stroke="grey" stroke-width="2" d="M117,-431.697C117,-423.983 117,-414.712 117,-406.112"/>
<polygon fill="grey" stroke="grey" points="120.5,-406.104 117,-396.104 113.5,-406.104 120.5,-406.104"/>
</g>
<!-- 5 -->
<g id="node6" class="node"><title>5</title>
<path fill="none" stroke="#70d856" stroke-width="2" d="M187.25,-108C187.25,-108 98.75,-108 98.75,-108 92.75,-108 86.75,-102 86.75,-96 86.75,-96 86.75,-84 86.75,-84 86.75,-78 92.75,-72 98.75,-72 98.75,-72 187.25,-72 187.25,-72 193.25,-72 199.25,-78 199.25,-84 199.25,-84 199.25,-96 199.25,-96 199.25,-102 193.25,-108 187.25,-108"/>
<text text-anchor="middle" x="143" y="-87.5" font-family="sans" font-size="10.00">evaluate_prophaser</text>
</g>
<!-- 2&#45;&gt;5 -->
<g id="edge8" class="edge"><title>2&#45;&gt;5</title>
<path fill="none" stroke="grey" stroke-width="2" d="M145.135,-432.511C180.603,-409.361 237,-363.646 237,-307 237,-307 237,-307 237,-233 237,-192.553 240.266,-177.766 218,-144 210.019,-131.897 198.245,-121.705 186.38,-113.594"/>
<polygon fill="grey" stroke="grey" points="188.081,-110.526 177.777,-108.057 184.293,-116.412 188.081,-110.526"/>
</g>
<!-- 8 -->
<g id="node9" class="node"><title>8</title>
<path fill="none" stroke="#afd856" stroke-width="2" d="M188,-324C188,-324 128,-324 128,-324 122,-324 116,-318 116,-312 116,-312 116,-300 116,-300 116,-294 122,-288 128,-288 128,-288 188,-288 188,-288 194,-288 200,-294 200,-300 200,-300 200,-312 200,-312 200,-318 194,-324 188,-324"/>
<text text-anchor="middle" x="158" y="-303.5" font-family="sans" font-size="10.00">for_prophaser</text>
</g>
<!-- 2&#45;&gt;8 -->
<g id="edge12" class="edge"><title>2&#45;&gt;8</title>
<path fill="none" stroke="grey" stroke-width="2" d="M132.316,-431.679C139.993,-421.908 148.578,-409.065 153,-396 159.729,-376.12 160.732,-352.325 160.187,-334.343"/>
<polygon fill="grey" stroke="grey" points="163.678,-334.064 159.702,-324.243 156.686,-334.399 163.678,-334.064"/>
</g>
<!-- 3&#45;&gt;1 -->
<g id="edge4" class="edge"><title>3&#45;&gt;1</title>
<path fill="none" stroke="grey" stroke-width="2" d="M65.5618,-287.697C63.1108,-279.898 60.1598,-270.509 57.432,-261.829"/>
<polygon fill="grey" stroke="grey" points="60.713,-260.595 54.3756,-252.104 54.035,-262.694 60.713,-260.595"/>
</g>
<!-- 4&#45;&gt;3 -->
<g id="edge6" class="edge"><title>4&#45;&gt;3</title>
<path fill="none" stroke="grey" stroke-width="2" d="M105.629,-359.697C100.282,-351.559 93.7957,-341.689 87.8894,-332.701"/>
<polygon fill="grey" stroke="grey" points="90.6568,-330.539 82.24,-324.104 84.8068,-334.384 90.6568,-330.539"/>
</g>
<!-- 4&#45;&gt;8 -->
<g id="edge13" class="edge"><title>4&#45;&gt;8</title>
<path fill="none" stroke="grey" stroke-width="2" d="M127.135,-359.697C131.852,-351.644 137.562,-341.894 142.782,-332.982"/>
<polygon fill="grey" stroke="grey" points="145.948,-334.502 147.982,-324.104 139.908,-330.964 145.948,-334.502"/>
</g>
<!-- 5&#45;&gt;0 -->
<g id="edge2" class="edge"><title>5&#45;&gt;0</title>
<path fill="none" stroke="grey" stroke-width="2" d="M131.382,-71.6966C125.861,-63.4741 119.153,-53.4832 113.068,-44.4207"/>
<polygon fill="grey" stroke="grey" points="115.965,-42.4555 107.484,-36.1043 110.153,-46.3576 115.965,-42.4555"/>
</g>
<!-- 6 -->
<g id="node7" class="node"><title>6</title>
<path fill="none" stroke="#d8cb56" stroke-width="2" d="M197,-180C197,-180 89,-180 89,-180 83,-180 77,-174 77,-168 77,-168 77,-156 77,-156 77,-150 83,-144 89,-144 89,-144 197,-144 197,-144 203,-144 209,-150 209,-156 209,-156 209,-168 209,-168 209,-174 203,-180 197,-180"/>
<text text-anchor="middle" x="143" y="-159.5" font-family="sans" font-size="10.00">for_evaluate_prophaser</text>
</g>
<!-- 6&#45;&gt;5 -->
<g id="edge9" class="edge"><title>6&#45;&gt;5</title>
<path fill="none" stroke="grey" stroke-width="2" d="M143,-143.697C143,-135.983 143,-126.712 143,-118.112"/>
<polygon fill="grey" stroke="grey" points="146.5,-118.104 143,-108.104 139.5,-118.104 146.5,-118.104"/>
</g>
<!-- 7 -->
<g id="node8" class="node"><title>7</title>
<path fill="none" stroke="#d88d56" stroke-width="2" d="M174.25,-252C174.25,-252 133.75,-252 133.75,-252 127.75,-252 121.75,-246 121.75,-240 121.75,-240 121.75,-228 121.75,-228 121.75,-222 127.75,-216 133.75,-216 133.75,-216 174.25,-216 174.25,-216 180.25,-216 186.25,-222 186.25,-228 186.25,-228 186.25,-240 186.25,-240 186.25,-246 180.25,-252 174.25,-252"/>
<text text-anchor="middle" x="154" y="-231.5" font-family="sans" font-size="10.00">prophaser</text>
</g>
<!-- 7&#45;&gt;6 -->
<g id="edge10" class="edge"><title>7&#45;&gt;6</title>
<path fill="none" stroke="grey" stroke-width="2" d="M151.281,-215.697C150.069,-207.983 148.612,-198.712 147.261,-190.112"/>
<polygon fill="grey" stroke="grey" points="150.698,-189.44 145.688,-180.104 143.783,-190.526 150.698,-189.44"/>
</g>
<!-- 8&#45;&gt;7 -->
<g id="edge11" class="edge"><title>8&#45;&gt;7</title>
<path fill="none" stroke="grey" stroke-width="2" d="M157.011,-287.697C156.57,-279.983 156.041,-270.712 155.549,-262.112"/>
<polygon fill="grey" stroke="grey" points="159.042,-261.888 154.977,-252.104 152.054,-262.288 159.042,-261.888"/>
</g>
</g>
</svg>
